<?xml version="1.0" standalone="no"?>
<!DOCTYPE svg PUBLIC "-//W3C//DTD SVG 20010904//EN"
 "http://www.w3.org/TR/2001/REC-SVG-20010904/DTD/svg10.dtd">
<svg version="1.0" xmlns="http://www.w3.org/2000/svg"
 width="64.000000pt" height="64.000000pt" viewBox="0 0 64.000000 64.000000"
 preserveAspectRatio="xMidYMid meet">

<g transform="translate(0.000000,64.000000) scale(0.100000,-0.100000)"
fill="#000000" stroke="none">
<path d="M187 574 c-4 -4 -7 -15 -7 -24 0 -9 -11 -22 -25 -28 -39 -18 -48 -55
-49 -207 -2 -249 -1 -250 214 -250 215 0 216 1 214 250 -1 152 -10 189 -48
206 -14 7 -26 21 -28 33 -4 27 -32 27 -36 0 -4 -27 -38 -22 -45 7 -7 25 -27
24 -34 -1 -3 -11 -13 -20 -23 -20 -10 0 -20 9 -23 20 -7 25 -27 26 -34 1 -7
-28 -41 -34 -45 -8 -3 21 -19 32 -31 21z m118 -209 c6 -1 35 1 65 6 56 9 84
-1 64 -21 -28 -28 -200 -28 -227 -1 -25 25 33 35 98 16z m25 -96 c30 1 66 3
79 4 32 3 39 -21 9 -32 -50 -19 -176 -17 -203 2 -27 21 -10 40 28 31 18 -4 57
-6 87 -5z"/>
</g>
</svg>
