<?xml version="1.0" standalone="no"?>
<!DOCTYPE svg PUBLIC "-//W3C//DTD SVG 20010904//EN"
 "http://www.w3.org/TR/2001/REC-SVG-20010904/DTD/svg10.dtd">
<svg version="1.0" xmlns="http://www.w3.org/2000/svg"
 width="512.000000pt" height="512.000000pt" viewBox="0 0 512.000000 512.000000"
 preserveAspectRatio="xMidYMid meet">

<g transform="translate(0.000000,512.000000) scale(0.100000,-0.100000)"
fill="#000000" stroke="none">
<path d="M1798 4180 c-209 -20 -403 -114 -551 -269 -76 -79 -115 -140 -246
-379 -69 -124 -91 -157 -91 -133 0 22 -63 81 -104 96 -35 13 -74 16 -214 13
-186 -3 -198 -7 -246 -72 -19 -25 -21 -42 -21 -171 0 -129 2 -146 21 -171 42
-57 69 -69 166 -73 l90 -3 -40 -42 c-23 -22 -54 -68 -69 -101 l-28 -60 0 -585
0 -585 28 -58 c18 -35 48 -74 78 -100 l49 -42 0 -160 c0 -88 4 -176 10 -195
13 -47 63 -106 113 -133 40 -21 53 -22 297 -22 292 0 324 6 383 76 46 53 57
97 57 229 l0 112 58 -6 c406 -42 1631 -42 2045 0 l57 6 0 -112 c0 -132 11
-176 57 -229 59 -70 91 -76 383 -76 244 0 257 1 297 22 50 27 100 86 113 133
6 19 10 107 10 195 l0 160 49 42 c30 26 60 65 78 100 l28 58 0 585 0 585 -28
60 c-15 33 -46 79 -69 101 l-40 42 90 3 c97 4 124 16 166 73 19 25 21 42 21
171 0 129 -2 146 -21 171 -48 65 -60 69 -246 72 -140 3 -179 0 -214 -13 -41
-15 -104 -74 -104 -96 0 -24 -23 11 -110 168 -122 221 -165 285 -247 365 -87
85 -186 150 -287 189 -165 64 -141 62 -946 65 -404 1 -774 -2 -822 -6z m1612
-174 c159 -44 307 -141 396 -260 49 -65 280 -474 272 -481 -5 -5 -352 -41
-528 -55 -401 -31 -1214 -41 -1645 -20 -303 15 -850 63 -864 75 -7 7 226 419
273 481 62 84 149 154 251 203 91 44 149 61 250 71 39 4 399 7 800 6 665 -2
736 -4 795 -20z m-2625 -708 c17 -29 32 -57 34 -61 2 -5 -7 -19 -20 -33 -22
-23 -27 -24 -171 -24 l-148 0 0 85 0 85 138 0 137 0 30 -52z m3855 -33 l0 -85
-148 0 c-144 0 -149 1 -171 24 -13 14 -22 28 -20 33 2 4 18 32 34 61 l30 52
138 0 137 0 0 -85z m-3410 -184 c436 -50 585 -56 1330 -56 746 0 897 6 1335
56 99 11 206 23 238 26 l59 6 140 -139 c77 -76 146 -153 154 -171 11 -26 14
-131 14 -567 0 -354 -4 -544 -11 -563 -13 -35 -46 -70 -81 -89 -47 -24 -771
-81 -1338 -105 -300 -13 -974 -7 -1275 11 -547 32 -1047 75 -1083 94 -36 19
-68 54 -81 89 -15 39 -15 1085 -1 1124 6 15 75 93 153 171 l142 144 65 -6 c36
-3 144 -14 240 -25z m-155 -1701 c127 -11 233 -20 238 -20 4 0 7 -51 7 -113 0
-161 17 -152 -270 -152 -290 0 -270 -13 -270 172 l0 133 33 0 c17 0 136 -9
262 -20z m3265 -113 c0 -185 20 -172 -270 -172 -287 0 -270 -9 -270 152 0 110
1 113 23 114 12 0 110 8 217 18 107 10 219 19 248 20 l52 1 0 -133z"/>
<path d="M875 2530 c-28 -11 -72 -60 -84 -93 -6 -16 -11 -81 -11 -145 0 -142
17 -183 90 -219 42 -22 55 -23 281 -23 143 0 249 4 266 11 42 15 92 68 103
109 5 19 10 80 10 135 0 117 -21 174 -79 212 -33 22 -40 23 -295 22 -144 0
-270 -4 -281 -9z m495 -235 l0 -85 -215 0 -215 0 0 85 0 85 215 0 215 0 0 -85z"/>
<path d="M3669 2517 c-58 -38 -79 -95 -79 -212 0 -55 5 -116 10 -135 11 -41
61 -94 103 -109 17 -7 123 -11 266 -11 226 0 239 1 281 23 33 16 51 34 68 67
21 41 23 56 20 172 -3 140 -11 160 -78 206 -32 21 -40 22 -295 22 -255 0 -263
-1 -296 -23z m511 -222 l0 -85 -215 0 -215 0 0 85 0 85 215 0 215 0 0 -85z"/>
<path d="M1930 2368 c-56 -16 -114 -64 -144 -119 -23 -40 -86 -324 -86 -382 0
-66 26 -122 77 -168 73 -66 49 -64 783 -64 734 0 710 -2 783 64 51 46 77 102
77 168 0 57 -63 340 -85 383 -19 37 -71 86 -114 107 -33 17 -81 18 -646 20
-386 1 -623 -2 -645 -9z m1249 -175 c10 -11 30 -73 45 -135 35 -149 40 -182
32 -213 -14 -55 -19 -55 -694 -55 -426 0 -629 3 -651 11 -61 21 -63 50 -20
232 34 148 41 164 72 177 12 5 283 8 610 7 l589 -2 17 -22z"/>
<path d="M832 1857 c-45 -47 -17 -120 50 -132 18 -3 154 -5 301 -3 l269 3 24
28 c29 34 31 66 3 101 l-20 26 -303 0 -303 0 -21 -23z"/>
<path d="M3641 1854 c-28 -35 -26 -67 3 -101 l24 -28 269 -3 c147 -2 283 0
301 3 68 13 96 89 49 133 -23 22 -29 22 -324 22 l-302 0 -20 -26z"/>
</g>
</svg>
