<?xml version="1.0" standalone="no"?>
<!DOCTYPE svg PUBLIC "-//W3C//DTD SVG 20010904//EN"
 "http://www.w3.org/TR/2001/REC-SVG-20010904/DTD/svg10.dtd">
<svg version="1.0" xmlns="http://www.w3.org/2000/svg"
 width="512.000000pt" height="512.000000pt" viewBox="0 0 512.000000 512.000000"
 preserveAspectRatio="xMidYMid meet">

<g transform="translate(0.000000,512.000000) scale(0.100000,-0.100000)"
fill="#000000" stroke="none">
<path d="M3658 4014 c-40 -21 -48 -43 -69 -183 -37 -252 -15 -370 93 -487 l41
-45 -25 -27 c-14 -15 -33 -39 -43 -54 -20 -32 -33 -35 -41 -10 -40 123 -117
223 -213 276 -28 15 -191 77 -363 137 -300 106 -317 111 -413 116 -182 9 -313
-44 -456 -187 -71 -71 -93 -101 -132 -181 -46 -93 -59 -109 -95 -109 -9 0
-101 39 -204 87 -181 84 -188 88 -188 116 0 46 -38 71 -245 166 -238 110 -315
129 -430 111 -79 -13 -368 -117 -396 -143 -37 -35 -37 -102 1 -135 30 -25 392
-192 418 -192 30 0 72 42 72 73 0 40 -24 59 -156 122 l-128 61 74 27 c109 39
180 50 243 37 29 -6 128 -46 222 -89 161 -75 170 -81 176 -111 4 -18 18 -43
30 -55 13 -13 119 -67 234 -121 245 -113 280 -121 368 -81 54 24 98 70 112
115 4 13 10 22 14 20 51 -20 521 -244 521 -248 0 -7 -381 -245 -389 -243 -3 1
-243 112 -533 247 -291 135 -538 246 -551 246 -54 0 -89 -87 -49 -123 10 -9
101 -55 203 -103 101 -47 186 -88 188 -90 11 -11 -9 -13 -33 -5 -34 13 -70 0
-92 -35 -15 -22 -16 -31 -6 -57 16 -43 -3 -64 -45 -50 -36 13 -67 1 -89 -32
-15 -23 -16 -32 -6 -58 12 -31 10 -34 -37 -81 l-49 -49 -73 31 c-93 38 -138
50 -238 62 -153 20 -331 -19 -480 -103 -98 -55 -235 -189 -288 -282 -275 -478
-15 -1072 520 -1190 108 -24 293 -17 392 15 280 90 488 309 551 580 9 41 18
77 20 78 1 2 76 24 166 48 149 40 164 43 175 28 14 -19 12 -21 -182 -151 -66
-44 -127 -88 -135 -98 -8 -10 -15 -38 -15 -62 0 -38 5 -49 33 -74 l32 -29 960
0 c643 0 968 3 986 10 22 9 29 8 36 -5 5 -8 32 -43 59 -76 189 -226 505 -329
797 -259 280 67 511 295 588 580 27 100 25 301 -4 403 -75 262 -271 470 -520
552 l-53 17 59 63 c87 92 107 139 107 250 0 146 13 129 -479 623 l-431 432
-45 0 c-25 -1 -57 -7 -72 -16z m474 -551 c255 -256 382 -390 393 -415 19 -47
19 -99 0 -144 -14 -35 -160 -194 -176 -194 -7 0 -843 281 -909 306 -11 4 -3
12 25 30 22 13 46 24 54 24 8 0 69 -31 135 -70 109 -62 127 -70 174 -70 133 0
227 122 192 249 -9 35 -36 69 -139 175 -140 144 -161 181 -161 282 0 64 20
204 29 204 3 0 176 -170 383 -377z m-1168 24 l296 -103 -45 -32 c-39 -28 -45
-36 -45 -69 0 -80 64 -96 155 -38 79 51 81 51 105 13 11 -18 20 -36 20 -40 0
-4 -28 -24 -62 -44 -35 -21 -235 -147 -446 -281 l-382 -242 -51 24 -51 23 54
34 c29 19 145 92 258 162 113 71 215 140 228 153 29 31 28 68 -3 98 -31 32
-56 31 -114 -1 l-46 -26 -295 137 c-162 76 -299 141 -303 145 -13 12 107 114
170 145 80 39 97 43 185 44 72 1 93 -5 372 -102z m907 -338 c18 -34 -3 -69
-41 -69 -22 0 -33 6 -41 24 -16 35 3 66 41 66 20 0 33 -7 41 -21z m273 -531
l88 -31 -328 -328 c-181 -181 -333 -329 -339 -329 -5 0 -44 23 -85 50 -41 27
-85 50 -98 50 -53 0 -88 -41 -77 -90 5 -23 27 -43 104 -93 l97 -64 15 -96 15
-97 -840 0 -840 0 90 61 c49 34 209 142 355 240 319 214 305 196 296 371 -5
91 -3 117 6 112 7 -4 104 -68 217 -142 235 -155 253 -164 291 -150 30 10 54
56 45 86 -10 29 -34 47 -279 207 -178 117 -224 152 -215 161 7 6 145 95 307
197 l294 185 396 -135 c218 -74 436 -149 485 -165z m-2388 242 l48 -21 -42
-42 -42 -42 -37 37 -37 37 24 26 c28 30 27 30 86 5z m174 -233 l0 -122 -107
-28 c-60 -15 -111 -27 -114 -27 -12 0 -19 63 -9 75 7 8 26 11 55 7 65 -7 89
16 82 78 -5 43 -3 47 41 93 25 26 48 47 49 47 2 0 3 -55 3 -123z m-350 58 c32
-33 33 -36 17 -52 -16 -17 -19 -15 -54 19 -31 31 -35 39 -24 52 18 22 23 21
61 -19z m850 -183 c0 -38 -2 -43 -17 -37 -108 45 -205 56 -286 31 l-47 -14 0
113 0 113 175 -81 175 -82 0 -43z m-990 43 l34 -35 -42 -43 -42 -42 -37 38
-37 37 39 40 c21 22 42 40 45 40 3 0 21 -16 40 -35z m-560 -16 c46 -5 116 -23
156 -38 71 -28 180 -97 218 -139 18 -21 18 -21 -38 -37 l-57 -17 -57 38 c-307
204 -720 51 -826 -305 -21 -70 -21 -205 0 -285 64 -248 316 -426 568 -401 187
18 359 133 437 293 34 69 34 69 92 85 l59 15 -7 -26 c-12 -52 -75 -173 -119
-231 -83 -108 -221 -194 -364 -227 -99 -24 -265 -15 -354 18 -198 74 -349 231
-408 423 -118 385 139 782 542 834 34 5 65 9 68 10 3 0 43 -4 90 -10z m3603
-15 c213 -55 384 -217 454 -428 37 -113 39 -276 5 -386 -63 -204 -227 -369
-427 -433 -100 -32 -290 -32 -390 0 -225 71 -401 270 -443 500 l-9 52 53 52
54 53 0 -59 c1 -251 207 -480 466 -517 264 -38 532 140 599 397 19 76 19 204
0 280 -59 226 -285 404 -515 405 l-44 0 49 50 c27 28 58 50 68 50 11 0 47 -7
80 -16z m-2163 -175 c72 -32 130 -98 130 -147 0 -14 -52 -54 -179 -141 -99
-66 -183 -121 -188 -121 -5 0 -21 12 -35 28 -83 89 -81 236 6 330 61 68 180
90 266 51z m-446 -53 c-34 -74 -47 -160 -34 -226 6 -29 9 -54 8 -55 -2 -1
-235 -64 -518 -140 -545 -145 -563 -148 -619 -108 -42 31 -74 105 -66 153 7
42 42 92 78 112 20 10 1138 315 1164 317 7 1 3 -19 -13 -53z m-986 -17 c26 -7
50 -15 55 -19 4 -3 -51 -22 -123 -42 l-131 -35 -26 34 c-14 18 -23 36 -20 39
12 12 104 32 150 33 27 1 69 -4 95 -10z m3412 2 c0 -5 -3 -23 -6 -40 -9 -42
-36 -40 -57 3 -16 34 -16 35 6 39 40 8 57 7 57 -2z m272 -82 c39 -31 108 -128
108 -152 0 -9 -13 -16 -35 -19 -33 -4 -37 -1 -60 39 -22 37 -76 86 -130 118
-14 9 -17 18 -11 48 l7 37 42 -21 c23 -12 58 -35 79 -50z m-476 -77 c-23 -23
-24 -23 -55 -8 -26 14 -30 20 -21 36 5 10 22 28 37 40 l27 21 17 -33 c17 -32
17 -34 -5 -56z m-3555 7 l21 -30 -26 -49 c-14 -26 -32 -76 -39 -111 -12 -59
-14 -63 -50 -75 l-37 -13 0 59 c0 33 7 81 16 107 17 49 73 143 86 143 3 0 16
-14 29 -31z m3861 -91 c99 -56 112 -186 27 -262 -67 -62 -157 -60 -220 3 -47
46 -62 99 -47 158 6 24 14 46 19 49 5 2 24 -27 43 -65 51 -100 88 -121 140
-80 35 27 34 67 -4 147 -17 35 -30 66 -30 68 0 11 36 2 72 -18z m-394 -143 c0
-52 6 -86 21 -120 l21 -48 -22 -24 c-12 -13 -25 -23 -30 -23 -5 0 -21 25 -35
57 -28 60 -41 163 -29 227 l7 35 33 -16 c34 -16 34 -16 34 -88z m700 -54 c-6
-58 -54 -164 -96 -208 -38 -40 -47 -41 -66 -6 -13 26 -12 30 14 63 38 49 60
95 68 143 8 42 16 48 76 56 5 0 6 -21 4 -48z m-4129 -154 c22 -24 63 -54 90
-67 50 -23 51 -24 51 -67 0 -41 -2 -44 -22 -38 -83 25 -155 73 -206 137 -36
46 -37 59 -1 69 42 12 48 10 88 -34z m518 -47 c-34 -49 -169 -130 -217 -130
-6 0 -10 20 -10 44 l0 43 113 31 c136 37 131 37 114 12z m3106 -37 c21 -11 60
-17 116 -19 81 -2 85 -3 99 -29 21 -41 5 -49 -96 -49 -86 1 -192 29 -208 55
-6 11 33 59 48 59 5 0 23 -8 41 -17z"/>
<path d="M1250 2085 c-477 -128 -488 -132 -500 -155 -24 -46 -6 -96 42 -113
23 -8 907 229 930 250 24 22 24 84 0 106 -10 10 -34 17 -53 16 -19 0 -207 -47
-419 -104z"/>
</g>
</svg>
