<?xml version="1.0" standalone="no"?>
<!DOCTYPE svg PUBLIC "-//W3C//DTD SVG 20010904//EN"
 "http://www.w3.org/TR/2001/REC-SVG-20010904/DTD/svg10.dtd">
<svg version="1.0" xmlns="http://www.w3.org/2000/svg"
 width="512.000000pt" height="512.000000pt" viewBox="0 0 512.000000 512.000000"
 preserveAspectRatio="xMidYMid meet">

<g transform="translate(0.000000,512.000000) scale(0.100000,-0.100000)"
fill="#000000" stroke="none">
<path d="M0 2860 l0 -2260 300 0 300 0 0 -300 0 -300 2260 0 2260 0 0 2260 0
2260 -300 0 -300 0 0 300 0 300 -2260 0 -2260 0 0 -2260z m4220 1660 l0 -300
-1960 0 -1960 0 0 300 0 300 1960 0 1960 0 0 -300z m600 -2260 l0 -1960 -1960
0 -1960 0 0 150 0 150 1402 3 1403 3 80 23 c293 83 519 274 645 544 21 45 49
118 61 162 l23 80 3 1403 3 1402 150 0 150 0 0 -1960z m-600 648 c0 -683 -4
-1025 -11 -1051 -13 -49 -73 -115 -124 -138 -36 -17 -72 -19 -352 -19 l-312 0
-3 -312 c-3 -299 -4 -315 -25 -354 -29 -54 -93 -110 -140 -123 -26 -8 -499
-11 -1495 -11 l-1458 0 0 1510 0 1510 1960 0 1960 0 0 -1012z m-27 -1520 c-52
-177 -182 -332 -348 -415 -56 -29 -165 -67 -171 -60 -2 1 3 21 11 44 24 70 35
163 35 305 l0 136 198 4 c150 4 207 8 237 21 56 22 56 23 38 -35z"/>
<path d="M1040 3280 l0 -150 150 0 150 0 0 150 0 150 -150 0 -150 0 0 -150z"/>
<path d="M1660 3280 l0 -150 865 0 865 0 0 150 0 150 -865 0 -865 0 0 -150z"/>
<path d="M1040 2680 l0 -150 150 0 150 0 0 150 0 150 -150 0 -150 0 0 -150z"/>
<path d="M1660 2680 l0 -150 865 0 865 0 0 150 0 150 -865 0 -865 0 0 -150z"/>
<path d="M1040 2080 l0 -150 150 0 150 0 0 150 0 150 -150 0 -150 0 0 -150z"/>
<path d="M1660 2080 l0 -150 865 0 865 0 0 150 0 150 -865 0 -865 0 0 -150z"/>
</g>
</svg>
