<?xml version="1.0" standalone="no"?>
<!DOCTYPE svg PUBLIC "-//W3C//DTD SVG 20010904//EN"
 "http://www.w3.org/TR/2001/REC-SVG-20010904/DTD/svg10.dtd">
<svg version="1.0" xmlns="http://www.w3.org/2000/svg"
 width="512.000000pt" height="512.000000pt" viewBox="0 0 512.000000 512.000000"
 preserveAspectRatio="xMidYMid meet">

<g transform="translate(0.000000,512.000000) scale(0.100000,-0.100000)"
fill="#000000" stroke="none">
<path d="M2300 5110 c-479 -50 -927 -226 -1309 -514 -124 -92 -343 -305 -442
-428 -197 -246 -342 -511 -440 -809 -51 -155 -97 -357 -106 -471 l-6 -68 892
0 891 0 0 214 c0 214 0 215 25 244 13 16 37 35 52 41 21 8 212 11 705 9 l677
-3 31 -30 c16 -16 35 -46 40 -67 7 -24 10 -273 8 -692 -3 -644 -3 -655 -24
-683 -48 -65 -20 -63 -749 -63 -737 0 -707 -3 -750 70 -18 32 -20 52 -20 240
l0 205 -887 3 -888 2 0 -42 c0 -105 64 -384 131 -574 47 -132 163 -371 235
-484 421 -662 1090 -1088 1874 -1192 142 -19 499 -16 645 6 315 46 565 124
835 261 251 128 456 281 667 498 378 389 613 863 699 1407 26 162 26 566 1
730 -87 560 -329 1043 -720 1439 -399 403 -893 653 -1462 737 -120 18 -486 26
-605 14z"/>
</g>
</svg>
